<?xml version="1.0" encoding="utf-8"?>
<!-- Generator: Adobe Illustrator 13.0.0, SVG Export Plug-In . SVG Version: 6.00 Build 14948)  -->
<!DOCTYPE svg PUBLIC "-//W3C//DTD SVG 1.1//EN" "http://www.w3.org/Graphics/SVG/1.1/DTD/svg11.dtd">
<svg version="1.1" id="Layer_1" xmlns="http://www.w3.org/2000/svg" xmlns:xlink="http://www.w3.org/1999/xlink" x="0px" y="0px"
	 width="218.386px" height="46.412px" viewBox="0 0 218.386 46.412" enable-background="new 0 0 218.386 46.412"
	 xml:space="preserve">
<path fill-rule="evenodd" clip-rule="evenodd" fill="#FFFFFF" d="M138.435,36.583c-0.447,0.816-0.998,1.492-1.66,2.016
	c-1.275,1.012-2.801,1.498-4.668,1.498c-1.527,0-2.963-0.375-4.271-1.123c-1.283-0.738-2.209-1.824-2.826-3.318
	c-0.633-1.547-0.961-3.402-0.961-5.506c0-1.623,0.275-3.227,0.813-4.762c0.52-1.453,1.393-2.588,2.676-3.457
	c1.275-0.861,2.902-1.299,4.834-1.299c1.65,0,3.025,0.383,4.092,1.139c0.746,0.533,1.377,1.318,1.891,2.342h5.879
	c-0.803-2.598-2.238-4.643-4.27-6.094c-2.043-1.451-4.57-2.184-7.512-2.184c-2.584,0-4.982,0.57-7.135,1.691
	c-2.187,1.141-3.894,2.832-5.079,5.023c-1.164,2.17-1.76,4.732-1.76,7.617c0,2.627,0.516,5.123,1.543,7.422
	c1.049,2.354,2.607,4.174,4.624,5.414c2.01,1.23,4.621,1.854,7.762,1.854c3.066,0,5.715-0.814,7.863-2.424
	c1.867-1.4,3.246-3.365,4.113-5.85H138.435z"/>
<path fill-rule="evenodd" clip-rule="evenodd" fill="#FFFFFF" d="M176.375,17.692c-2.172-1.232-4.65-1.857-7.354-1.857
	c-4.135,0-7.57,1.338-10.199,3.971c-2.631,2.631-3.963,6.299-3.963,10.902c0,2.447,0.564,4.799,1.686,6.984
	c1.131,2.219,2.824,3.986,5.016,5.258c2.184,1.266,4.682,1.906,7.439,1.906c2.541,0,4.943-0.576,7.143-1.717
	c2.229-1.154,3.982-2.885,5.201-5.143c1.195-2.229,1.805-4.783,1.805-7.594c0-2.762-0.578-5.281-1.715-7.484
	C180.277,20.692,178.578,18.932,176.375,17.692z M177.578,30.377c0,3.133-0.816,5.566-2.422,7.227
	c-1.619,1.676-3.637,2.492-6.17,2.492c-2.486,0-4.484-0.807-6.121-2.467c-1.641-1.674-2.441-3.92-2.441-6.877
	c0-3.67,0.85-6.299,2.514-7.814c1.723-1.551,3.721-2.307,6.104-2.307c1.66,0,3.168,0.398,4.479,1.191
	c1.313,0.773,2.32,1.895,3.008,3.326C177.221,26.618,177.578,28.375,177.578,30.377z"/>
<path fill-rule="evenodd" clip-rule="evenodd" fill="#FFFFFF" d="M217.491,16.282h-4.434c0,0,0,14.516,0,18.732
	c-2.564-3.654-13.146-18.732-13.146-18.732h-5.143v28.127h5.32c0,0,0-14.516,0-18.732c2.57,3.652,13.152,18.732,13.152,18.732h5.145
	V16.282H217.491z"/>
<path fill="#EF4136" d="M105.502,41.89c-5.333,1.897-9.985,2.994-13.954,3.29c-3.968,0.297-7.228,0.355-9.773,0.177
	c-1.957-0.058-3.172-0.384-3.645-0.977c-0.476-0.593-0.564-1.243-0.266-1.958c0.294-0.709,0.813-1.448,1.553-2.22
	c0.74-0.769,1.377-1.392,1.912-1.866c1.54-1.48,3.556-3.185,6.044-5.111c2.487-1.924,5.272-3.835,8.353-5.732
	c1.066-0.65,1.852-1.166,2.355-1.553c0.502-0.385,0.726-0.696,0.668-0.936c-0.061-0.236-0.371-0.457-0.936-0.664
	c-0.563-0.208-1.407-0.459-2.531-0.758l-10.219-2.488c-3.023-0.709-4.342-1.791-3.956-3.242s1.704-2.889,3.956-4.311
	c1.005,0.533,2.768,1.229,5.286,2.088c2.518,0.857,5.318,1.762,8.399,2.709c2.961,1.008,5.005,1.987,6.131,2.935
	c1.126,0.95,1.569,1.927,1.333,2.932c-0.179,0.95-0.933,1.958-2.266,3.022c-1.334,1.066-2.978,2.163-4.933,3.289
	c-1.244,0.711-2.313,1.333-3.199,1.865c-0.89,0.535-1.748,1.037-2.577,1.51c-0.771,0.535-1.526,1.054-2.267,1.557
	c-0.742,0.504-1.525,1.08-2.355,1.732c-1.778,1.363-2.77,2.354-2.977,2.977c-0.208,0.622,0.872,0.875,3.244,0.758
	c2.843,0,5.374-0.177,7.597-0.533c2.223-0.357,4.933-0.979,8.134-1.869c1.124-0.354,2.117-0.473,2.976-0.354
	c0.858,0.12,1.407,0.356,1.647,0.711c0.236,0.414,0.072,0.904-0.49,1.465C108.183,40.899,107.103,41.417,105.502,41.89z"/>
<path fill-rule="evenodd" clip-rule="evenodd" fill="#EF4136" d="M0,16.139c0.207-0.252,5.871-5.664,11.07-3.057
	c5.143,2.582,6.924,8.49,1.609,32.281l-0.072,0.318l0.297,0.123c0.027,0.012,2.631,1.045,5.063-1.893
	c1.785-2.154,9.311-12.859,12.324-17.164c-0.209,1.119-0.467,2.615-0.689,4.277c-0.742,5.508-1.105,12.834,1.875,14.264
	c1.438,0.689,3.424,0.01,5.898-2.021c12.131-9.955,17.166-24.045,13.561-29.992l-0.119-0.199l-5.502,0.238L45.875,14
	c0.053,0.063,5.092,6.553-5.25,22.281c-1.371,1.904-4.076,4.793-5.445,4.367c-1.305-0.408-2.809-3.98,1.791-23.34
	c0.006,0,0.076-0.225-0.082-0.453c-0.211-0.309-0.713-0.453-1.582-0.457c-1.549-0.008-1.748,0.199-2.857,1.828l-0.281,0.412
	c-2.184,3.184-9.57,13.863-12.402,17.732c0.078-0.506,0.166-1.076,0.258-1.764c0.918-6.836,2.078-21.604-4.486-24.537
	C7.023,6.268,0.07,16.04,0,16.139"/>
<g>
	<path fill="#EF4136" d="M64.729,14.595L59.666,42.47c-0.5,4.563,4.583,5.539,6.161,0.931l2.232-27.99
		C68.354,10.908,65.166,11.908,64.729,14.595z"/>
	<polygon fill-rule="evenodd" clip-rule="evenodd" fill="#EF4136" points="67.823,2.667 72.497,0.868 69.83,5.107 71.63,9.78 
		67.39,7.113 62.717,8.912 65.384,4.672 63.584,0 	"/>
</g>
</svg>
