<svg width="30" height="30" viewBox="0 0 30 30" fill="none" xmlns="http://www.w3.org/2000/svg">
<path d="M9.12995 20.8749V14.1999L22.214 1.14342C22.6022 0.755398 23.0338 0.467829 23.5087 0.280712C23.9837 0.0935702 24.4655 0 24.9542 0C25.4535 0 25.938 0.0935702 26.4077 0.280712C26.8774 0.467829 27.3063 0.755398 27.6945 1.14342L28.8719 2.33597C29.2495 2.72397 29.5319 3.15269 29.7191 3.62212C29.9064 4.09156 30 4.5705 30 5.05895C30 5.5474 29.909 6.02977 29.7271 6.50606C29.5452 6.98235 29.2601 7.41451 28.8719 7.80253L15.8085 20.8749H9.12995ZM24.6861 7.10155L26.7456 5.05895L24.9701 3.30497L22.9106 5.32697L24.6861 7.10155ZM3.86844 30C2.79052 30 1.8763 29.6249 1.12578 28.8748C0.37526 28.1247 0 27.211 0 26.1336V6.20237C0 5.12502 0.37526 4.21128 1.12578 3.46116C1.8763 2.71104 2.79052 2.33597 3.86844 2.33597H16.8763L6.2104 12.9962V23.7929H17.0175L27.6787 13.1374V26.1336C27.6787 27.211 27.3034 28.1247 26.5529 28.8748C25.8024 29.6249 24.8881 30 23.8102 30H3.86844Z" fill="url(#paint0_linear_250_3)"/>
<defs>
<linearGradient id="paint0_linear_250_3" x1="15" y1="0" x2="15" y2="30" gradientUnits="userSpaceOnUse">
<stop stop-color="white"/>
<stop offset="1" stop-color="white"/>
</linearGradient>
</defs>
</svg>
